<mxfile host="drawio-plugin" modified="2023-08-06T23:02:59.058Z" agent="5.0 (X11; Linux x86_64) AppleWebKit/537.36 (KHTML, like Gecko) Chrome/111.0.0.0 Safari/537.36" etag="NBQohRFeJl_werGLIA2y" version="20.5.3" type="embed"><diagram id="23iRSUPoRavnBvh4doch" name="Page-1"><mxGraphModel dx="1776" dy="1786" grid="1" gridSize="10" guides="1" tooltips="1" connect="1" arrows="1" fold="1" page="1" pageScale="1" pageWidth="827" pageHeight="1169" background="#FFFFFF" math="0" shadow="0"><root><mxCell id="0"/><mxCell id="1" parent="0"/><mxCell id="6" value="" style="edgeStyle=orthogonalEdgeStyle;rounded=0;orthogonalLoop=1;jettySize=auto;html=1;endArrow=none;endFill=0;fillColor=#6d8764;strokeColor=#3A5431;" edge="1" parent="1" source="2" target="4"><mxGeometry relative="1" as="geometry"/></mxCell><mxCell id="7" style="edgeStyle=orthogonalEdgeStyle;rounded=0;orthogonalLoop=1;jettySize=auto;html=1;exitX=0.5;exitY=1;exitDx=0;exitDy=0;endArrow=none;endFill=0;fillColor=#6d8764;strokeColor=#3A5431;" edge="1" parent="1" source="2" target="5"><mxGeometry relative="1" as="geometry"/></mxCell><mxCell id="8" style="edgeStyle=orthogonalEdgeStyle;rounded=0;orthogonalLoop=1;jettySize=auto;html=1;exitX=0.5;exitY=1;exitDx=0;exitDy=0;endArrow=none;endFill=0;fillColor=#6d8764;strokeColor=#3A5431;" edge="1" parent="1" source="2" target="3"><mxGeometry relative="1" as="geometry"/></mxCell><mxCell id="24" value="" style="edgeStyle=orthogonalEdgeStyle;rounded=0;orthogonalLoop=1;jettySize=auto;html=1;endArrow=none;endFill=0;fillColor=#6d8764;strokeColor=#3A5431;" edge="1" parent="1" source="2" target="23"><mxGeometry relative="1" as="geometry"/></mxCell><mxCell id="2" value="Menu" style="rounded=1;whiteSpace=wrap;html=1;fillColor=#6d8764;fontColor=#ffffff;strokeColor=#3A5431;" vertex="1" parent="1"><mxGeometry x="190" y="150" width="120" height="60" as="geometry"/></mxCell><mxCell id="21" value="" style="edgeStyle=orthogonalEdgeStyle;rounded=0;orthogonalLoop=1;jettySize=auto;html=1;endArrow=none;endFill=0;fillColor=#6d8764;strokeColor=#3A5431;" edge="1" parent="1" source="3" target="19"><mxGeometry relative="1" as="geometry"/></mxCell><mxCell id="3" value="Cadastro" style="rounded=1;whiteSpace=wrap;html=1;fillColor=#6d8764;fontColor=#ffffff;strokeColor=#3A5431;" vertex="1" parent="1"><mxGeometry x="-30" y="300" width="120" height="60" as="geometry"/></mxCell><mxCell id="16" value="" style="edgeStyle=orthogonalEdgeStyle;rounded=0;orthogonalLoop=1;jettySize=auto;html=1;endArrow=none;endFill=0;fillColor=#6d8764;strokeColor=#3A5431;" edge="1" parent="1" source="4" target="15"><mxGeometry relative="1" as="geometry"/></mxCell><mxCell id="4" value="Pesquisar" style="rounded=1;whiteSpace=wrap;html=1;fillColor=#6d8764;fontColor=#ffffff;strokeColor=#3A5431;" vertex="1" parent="1"><mxGeometry x="190" y="300" width="120" height="60" as="geometry"/></mxCell><mxCell id="12" style="edgeStyle=orthogonalEdgeStyle;rounded=0;orthogonalLoop=1;jettySize=auto;html=1;exitX=1;exitY=0.5;exitDx=0;exitDy=0;entryX=0;entryY=0.5;entryDx=0;entryDy=0;endArrow=none;endFill=0;fillColor=#6d8764;strokeColor=#3A5431;" edge="1" parent="1" source="5" target="11"><mxGeometry relative="1" as="geometry"/></mxCell><mxCell id="13" style="edgeStyle=orthogonalEdgeStyle;rounded=0;orthogonalLoop=1;jettySize=auto;html=1;exitX=1;exitY=0.5;exitDx=0;exitDy=0;entryX=0;entryY=0.5;entryDx=0;entryDy=0;endArrow=none;endFill=0;fillColor=#6d8764;strokeColor=#3A5431;" edge="1" parent="1" source="5" target="9"><mxGeometry relative="1" as="geometry"/></mxCell><mxCell id="14" style="edgeStyle=orthogonalEdgeStyle;rounded=0;orthogonalLoop=1;jettySize=auto;html=1;exitX=1;exitY=0.5;exitDx=0;exitDy=0;entryX=0;entryY=0.5;entryDx=0;entryDy=0;endArrow=none;endFill=0;fillColor=#6d8764;strokeColor=#3A5431;" edge="1" parent="1" source="5" target="10"><mxGeometry relative="1" as="geometry"/></mxCell><mxCell id="5" value="Apresentar" style="rounded=1;whiteSpace=wrap;html=1;fillColor=#6d8764;fontColor=#ffffff;strokeColor=#3A5431;" vertex="1" parent="1"><mxGeometry x="420" y="300" width="120" height="60" as="geometry"/></mxCell><mxCell id="9" value="Apresentar todos os registros" style="rounded=1;whiteSpace=wrap;html=1;fillColor=#6d8764;fontColor=#ffffff;strokeColor=#3A5431;" vertex="1" parent="1"><mxGeometry x="650" y="300" width="120" height="60" as="geometry"/></mxCell><mxCell id="10" value="Apresentar apenas os reprovados" style="rounded=1;whiteSpace=wrap;html=1;fillColor=#6d8764;fontColor=#ffffff;strokeColor=#3A5431;" vertex="1" parent="1"><mxGeometry x="650" y="470" width="120" height="60" as="geometry"/></mxCell><mxCell id="11" value="Apresentar apenas os aprovados" style="rounded=1;whiteSpace=wrap;html=1;fillColor=#6d8764;fontColor=#ffffff;strokeColor=#3A5431;" vertex="1" parent="1"><mxGeometry x="650" y="130" width="120" height="60" as="geometry"/></mxCell><mxCell id="18" value="" style="edgeStyle=orthogonalEdgeStyle;rounded=0;orthogonalLoop=1;jettySize=auto;html=1;endArrow=none;endFill=0;fillColor=#6d8764;strokeColor=#3A5431;" edge="1" parent="1" source="15" target="17"><mxGeometry relative="1" as="geometry"/></mxCell><mxCell id="15" value="Pesquisar por nome" style="rounded=1;whiteSpace=wrap;html=1;fillColor=#6d8764;fontColor=#ffffff;strokeColor=#3A5431;" vertex="1" parent="1"><mxGeometry x="190" y="450" width="120" height="60" as="geometry"/></mxCell><mxCell id="17" value="Pesquisar binaria" style="rounded=1;whiteSpace=wrap;html=1;fillColor=#6d8764;fontColor=#ffffff;strokeColor=#3A5431;" vertex="1" parent="1"><mxGeometry x="190" y="600" width="120" height="60" as="geometry"/></mxCell><mxCell id="22" value="" style="edgeStyle=orthogonalEdgeStyle;rounded=0;orthogonalLoop=1;jettySize=auto;html=1;endArrow=none;endFill=0;fillColor=#6d8764;strokeColor=#3A5431;" edge="1" parent="1" source="19" target="20"><mxGeometry relative="1" as="geometry"/></mxCell><mxCell id="19" value="Cadastro nome" style="rounded=1;whiteSpace=wrap;html=1;fillColor=#6d8764;fontColor=#ffffff;strokeColor=#3A5431;" vertex="1" parent="1"><mxGeometry x="-30" y="450" width="120" height="60" as="geometry"/></mxCell><mxCell id="20" value="Cadastro notas bimestral" style="rounded=1;whiteSpace=wrap;html=1;fillColor=#6d8764;fontColor=#ffffff;strokeColor=#3A5431;" vertex="1" parent="1"><mxGeometry x="-30" y="600" width="120" height="60" as="geometry"/></mxCell><mxCell id="23" value="Sair" style="rounded=1;whiteSpace=wrap;html=1;fillColor=#6d8764;fontColor=#ffffff;strokeColor=#3A5431;" vertex="1" parent="1"><mxGeometry x="190" width="120" height="60" as="geometry"/></mxCell><mxCell id="25" value="Pesquisa" style="shape=process;whiteSpace=wrap;html=1;backgroundOutline=1;fillColor=#6d8764;fontColor=#ffffff;strokeColor=#3A5431;" vertex="1" parent="1"><mxGeometry x="-425" y="414" width="120" height="60" as="geometry"/></mxCell><mxCell id="26" value="Apresentar" style="shape=process;whiteSpace=wrap;html=1;backgroundOutline=1;fillColor=#6d8764;fontColor=#ffffff;strokeColor=#3A5431;" vertex="1" parent="1"><mxGeometry x="-425" y="510" width="120" height="60" as="geometry"/></mxCell><mxCell id="27" value="Cadastro" style="shape=process;whiteSpace=wrap;html=1;backgroundOutline=1;fillColor=#6d8764;fontColor=#ffffff;strokeColor=#3A5431;" vertex="1" parent="1"><mxGeometry x="-425" y="318" width="120" height="60" as="geometry"/></mxCell><mxCell id="28" value="Cadastro" style="shape=process;whiteSpace=wrap;html=1;backgroundOutline=1;fillColor=#6d8764;fontColor=#ffffff;strokeColor=#3A5431;" vertex="1" parent="1"><mxGeometry x="-425" y="604" width="120" height="60" as="geometry"/></mxCell><mxCell id="35" value="" style="edgeStyle=orthogonalEdgeStyle;rounded=0;orthogonalLoop=1;jettySize=auto;html=1;endArrow=classic;endFill=1;strokeColor=#000000;" edge="1" parent="1" source="29" target="32"><mxGeometry relative="1" as="geometry"/></mxCell><mxCell id="29" value="Start" style="strokeWidth=2;html=1;shape=mxgraph.flowchart.start_1;whiteSpace=wrap;fillColor=#f5f5f5;strokeColor=#666666;fontColor=#333333;" vertex="1" parent="1"><mxGeometry x="1197" y="-90" width="100" height="60" as="geometry"/></mxCell><mxCell id="30" value="End" style="strokeWidth=2;html=1;shape=mxgraph.flowchart.start_1;whiteSpace=wrap;fillColor=#f5f5f5;fontColor=#333333;strokeColor=#666666;" vertex="1" parent="1"><mxGeometry x="1150" y="1290" width="100" height="60" as="geometry"/></mxCell><mxCell id="36" value="" style="edgeStyle=orthogonalEdgeStyle;rounded=0;orthogonalLoop=1;jettySize=auto;html=1;endArrow=classic;endFill=1;strokeColor=#030303;" edge="1" parent="1" source="32" target="33"><mxGeometry relative="1" as="geometry"/></mxCell><mxCell id="32" value="Opcao &amp;lt;- 0" style="rounded=1;whiteSpace=wrap;html=1;fillColor=#76608a;fontColor=#ffffff;strokeColor=#432D57;" vertex="1" parent="1"><mxGeometry x="1187" y="19" width="120" height="60" as="geometry"/></mxCell><mxCell id="62" value="" style="edgeStyle=orthogonalEdgeStyle;rounded=0;orthogonalLoop=1;jettySize=auto;html=1;strokeColor=#030303;endArrow=classic;endFill=1;" edge="1" parent="1" source="33" target="60"><mxGeometry relative="1" as="geometry"/></mxCell><mxCell id="73" style="edgeStyle=orthogonalEdgeStyle;rounded=0;orthogonalLoop=1;jettySize=auto;html=1;exitX=1;exitY=0.5;exitDx=0;exitDy=0;exitPerimeter=0;entryX=0.5;entryY=0;entryDx=0;entryDy=0;entryPerimeter=0;strokeColor=#030303;endArrow=classic;endFill=1;" edge="1" parent="1" source="33" target="30"><mxGeometry relative="1" as="geometry"><Array as="points"><mxPoint x="1959" y="169"/><mxPoint x="1959" y="1220"/><mxPoint x="1200" y="1220"/></Array></mxGeometry></mxCell><mxCell id="33" value="Opcao &amp;lt;&amp;gt; 5" style="strokeWidth=2;html=1;shape=mxgraph.flowchart.decision;whiteSpace=wrap;fillColor=#76608a;fontColor=#ffffff;strokeColor=#432D57;" vertex="1" parent="1"><mxGeometry x="1197" y="119" width="100" height="100" as="geometry"/></mxCell><mxCell id="66" value="" style="edgeStyle=orthogonalEdgeStyle;rounded=0;orthogonalLoop=1;jettySize=auto;html=1;strokeColor=#030303;endArrow=classic;endFill=1;" edge="1" parent="1" source="34" target="61"><mxGeometry relative="1" as="geometry"/></mxCell><mxCell id="34" value="Opcao" style="html=1;strokeWidth=2;shape=manualInput;whiteSpace=wrap;rounded=1;size=26;arcSize=11;fillColor=#647687;fontColor=#ffffff;strokeColor=#314354;" vertex="1" parent="1"><mxGeometry x="1197" y="378" width="100" height="60" as="geometry"/></mxCell><mxCell id="47" value="" style="edgeStyle=orthogonalEdgeStyle;rounded=0;orthogonalLoop=1;jettySize=auto;html=1;strokeColor=#030303;endArrow=classic;endFill=1;" edge="1" parent="1" source="38" target="39"><mxGeometry relative="1" as="geometry"/></mxCell><mxCell id="50" value="" style="edgeStyle=orthogonalEdgeStyle;rounded=0;orthogonalLoop=1;jettySize=auto;html=1;strokeColor=#030303;endArrow=classic;endFill=1;" edge="1" parent="1" source="38" target="45"><mxGeometry relative="1" as="geometry"/></mxCell><mxCell id="38" value="Opcao == 1" style="strokeWidth=2;html=1;shape=mxgraph.flowchart.decision;whiteSpace=wrap;fillColor=#76608a;fontColor=#ffffff;strokeColor=#432D57;" vertex="1" parent="1"><mxGeometry x="1453" y="550" width="100" height="100" as="geometry"/></mxCell><mxCell id="48" value="" style="edgeStyle=orthogonalEdgeStyle;rounded=0;orthogonalLoop=1;jettySize=auto;html=1;strokeColor=#030303;endArrow=classic;endFill=1;" edge="1" parent="1" source="39" target="40"><mxGeometry relative="1" as="geometry"/></mxCell><mxCell id="51" value="" style="edgeStyle=orthogonalEdgeStyle;rounded=0;orthogonalLoop=1;jettySize=auto;html=1;strokeColor=#030303;endArrow=classic;endFill=1;" edge="1" parent="1" source="39" target="43"><mxGeometry relative="1" as="geometry"/></mxCell><mxCell id="39" value="Opcao == 2" style="strokeWidth=2;html=1;shape=mxgraph.flowchart.decision;whiteSpace=wrap;fillColor=#76608a;fontColor=#ffffff;strokeColor=#432D57;" vertex="1" parent="1"><mxGeometry x="1453" y="691" width="100" height="100" as="geometry"/></mxCell><mxCell id="49" value="" style="edgeStyle=orthogonalEdgeStyle;rounded=0;orthogonalLoop=1;jettySize=auto;html=1;strokeColor=#030303;endArrow=classic;endFill=1;" edge="1" parent="1" source="40" target="46"><mxGeometry relative="1" as="geometry"/></mxCell><mxCell id="52" value="" style="edgeStyle=orthogonalEdgeStyle;rounded=0;orthogonalLoop=1;jettySize=auto;html=1;strokeColor=#030303;endArrow=classic;endFill=1;" edge="1" parent="1" source="40" target="44"><mxGeometry relative="1" as="geometry"/></mxCell><mxCell id="40" value="Opcao == 3" style="strokeWidth=2;html=1;shape=mxgraph.flowchart.decision;whiteSpace=wrap;fillColor=#76608a;fontColor=#ffffff;strokeColor=#432D57;" vertex="1" parent="1"><mxGeometry x="1453" y="840" width="100" height="100" as="geometry"/></mxCell><mxCell id="85" style="edgeStyle=orthogonalEdgeStyle;rounded=0;orthogonalLoop=1;jettySize=auto;html=1;exitX=1;exitY=0.5;exitDx=0;exitDy=0;strokeColor=#030303;endArrow=classic;endFill=1;" edge="1" parent="1" source="43"><mxGeometry relative="1" as="geometry"><mxPoint x="1960" y="741" as="targetPoint"/></mxGeometry></mxCell><mxCell id="43" value="Pesquisa" style="shape=process;whiteSpace=wrap;html=1;backgroundOutline=1;fillColor=#f0a30a;fontColor=#000000;strokeColor=#BD7000;" vertex="1" parent="1"><mxGeometry x="1609" y="711" width="120" height="60" as="geometry"/></mxCell><mxCell id="87" style="edgeStyle=orthogonalEdgeStyle;rounded=0;orthogonalLoop=1;jettySize=auto;html=1;exitX=1;exitY=0.5;exitDx=0;exitDy=0;strokeColor=#030303;endArrow=classic;endFill=1;" edge="1" parent="1" source="44"><mxGeometry relative="1" as="geometry"><mxPoint x="1960" y="890" as="targetPoint"/></mxGeometry></mxCell><mxCell id="44" value="Apresentar" style="shape=process;whiteSpace=wrap;html=1;backgroundOutline=1;fillColor=#f0a30a;fontColor=#000000;strokeColor=#BD7000;" vertex="1" parent="1"><mxGeometry x="1612" y="860" width="120" height="60" as="geometry"/></mxCell><mxCell id="83" style="edgeStyle=orthogonalEdgeStyle;rounded=0;orthogonalLoop=1;jettySize=auto;html=1;exitX=1;exitY=0.5;exitDx=0;exitDy=0;strokeColor=#030303;endArrow=classic;endFill=1;" edge="1" parent="1" source="45"><mxGeometry relative="1" as="geometry"><mxPoint x="1960" y="600" as="targetPoint"/></mxGeometry></mxCell><mxCell id="45" value="Cadastro" style="shape=process;whiteSpace=wrap;html=1;backgroundOutline=1;fillColor=#f0a30a;strokeColor=#BD7000;fontColor=#000000;" vertex="1" parent="1"><mxGeometry x="1609" y="570" width="120" height="60" as="geometry"/></mxCell><mxCell id="55" value="" style="edgeStyle=orthogonalEdgeStyle;rounded=0;orthogonalLoop=1;jettySize=auto;html=1;strokeColor=#030303;endArrow=classic;endFill=1;" edge="1" parent="1" source="46" target="54"><mxGeometry relative="1" as="geometry"/></mxCell><mxCell id="46" value="&quot;Opção invalida. Digite um número de 1 a 5!&quot;" style="strokeWidth=2;html=1;shape=mxgraph.flowchart.display;whiteSpace=wrap;fillColor=#6d8764;fontColor=#ffffff;strokeColor=#3A5431;" vertex="1" parent="1"><mxGeometry x="1420" y="989" width="166" height="60" as="geometry"/></mxCell><mxCell id="70" style="edgeStyle=orthogonalEdgeStyle;rounded=0;orthogonalLoop=1;jettySize=auto;html=1;exitX=0;exitY=0.5;exitDx=0;exitDy=0;exitPerimeter=0;entryX=1;entryY=0.5;entryDx=0;entryDy=0;entryPerimeter=0;strokeColor=#030303;endArrow=classic;endFill=1;" edge="1" parent="1" source="54" target="68"><mxGeometry relative="1" as="geometry"/></mxCell><mxCell id="54" value="" style="strokeWidth=2;html=1;shape=mxgraph.flowchart.start_2;whiteSpace=wrap;fillColor=#f5f5f5;fontColor=#333333;strokeColor=#666666;" vertex="1" parent="1"><mxGeometry x="1483" y="1126" width="40" height="40" as="geometry"/></mxCell><mxCell id="65" value="" style="edgeStyle=orthogonalEdgeStyle;rounded=0;orthogonalLoop=1;jettySize=auto;html=1;strokeColor=#030303;endArrow=classic;endFill=1;" edge="1" parent="1" source="60" target="34"><mxGeometry relative="1" as="geometry"/></mxCell><mxCell id="60" value="&quot;1 - Cadastro&lt;br&gt;2 - Pesquisar&lt;br&gt;3- Apresentar&lt;br&gt;4 - Sair&quot;" style="strokeWidth=2;html=1;shape=mxgraph.flowchart.display;whiteSpace=wrap;fillColor=#6d8764;fontColor=#ffffff;strokeColor=#3A5431;" vertex="1" parent="1"><mxGeometry x="1167" y="270" width="160" height="70" as="geometry"/></mxCell><mxCell id="64" style="edgeStyle=orthogonalEdgeStyle;rounded=0;orthogonalLoop=1;jettySize=auto;html=1;exitX=1;exitY=0.5;exitDx=0;exitDy=0;exitPerimeter=0;entryX=0.5;entryY=0;entryDx=0;entryDy=0;entryPerimeter=0;strokeColor=#030303;endArrow=classic;endFill=1;" edge="1" parent="1" source="61" target="38"><mxGeometry relative="1" as="geometry"/></mxCell><mxCell id="71" style="edgeStyle=orthogonalEdgeStyle;rounded=0;orthogonalLoop=1;jettySize=auto;html=1;exitX=0;exitY=0.5;exitDx=0;exitDy=0;exitPerimeter=0;entryX=0;entryY=0.5;entryDx=0;entryDy=0;entryPerimeter=0;strokeColor=#030303;endArrow=classic;endFill=1;" edge="1" parent="1" source="61" target="68"><mxGeometry relative="1" as="geometry"><Array as="points"><mxPoint x="1060" y="524"/><mxPoint x="1060" y="1146"/></Array></mxGeometry></mxCell><mxCell id="61" value="Opcao &amp;lt;&amp;gt; 5" style="strokeWidth=2;html=1;shape=mxgraph.flowchart.decision;whiteSpace=wrap;fillColor=#76608a;fontColor=#ffffff;strokeColor=#432D57;" vertex="1" parent="1"><mxGeometry x="1197" y="474" width="100" height="100" as="geometry"/></mxCell><mxCell id="72" style="edgeStyle=orthogonalEdgeStyle;rounded=0;orthogonalLoop=1;jettySize=auto;html=1;exitX=0.5;exitY=1;exitDx=0;exitDy=0;exitPerimeter=0;entryX=0;entryY=0.5;entryDx=0;entryDy=0;entryPerimeter=0;strokeColor=#030303;endArrow=classic;endFill=1;" edge="1" parent="1" source="68" target="33"><mxGeometry relative="1" as="geometry"><Array as="points"><mxPoint x="1247" y="1186"/><mxPoint x="940" y="1186"/><mxPoint x="940" y="169"/></Array></mxGeometry></mxCell><mxCell id="68" value="" style="strokeWidth=2;html=1;shape=mxgraph.flowchart.start_2;whiteSpace=wrap;fillColor=#f5f5f5;fontColor=#333333;strokeColor=#666666;" vertex="1" parent="1"><mxGeometry x="1227" y="1126" width="40" height="40" as="geometry"/></mxCell><mxCell id="90" value="" style="edgeStyle=orthogonalEdgeStyle;rounded=0;orthogonalLoop=1;jettySize=auto;html=1;strokeColor=#030303;endArrow=classic;endFill=1;" edge="1" parent="1" source="88" target="89"><mxGeometry relative="1" as="geometry"/></mxCell><mxCell id="88" value="Cadastro" style="strokeWidth=2;html=1;shape=mxgraph.flowchart.start_1;whiteSpace=wrap;" vertex="1" parent="1"><mxGeometry x="2220" y="470" width="80" height="40" as="geometry"/></mxCell><mxCell id="92" value="" style="edgeStyle=orthogonalEdgeStyle;rounded=0;orthogonalLoop=1;jettySize=auto;html=1;strokeColor=#030303;endArrow=classic;endFill=1;" edge="1" parent="1" source="89" target="91"><mxGeometry relative="1" as="geometry"/></mxCell><mxCell id="102" style="edgeStyle=orthogonalEdgeStyle;rounded=0;orthogonalLoop=1;jettySize=auto;html=1;exitX=1;exitY=0.5;exitDx=0;exitDy=0;exitPerimeter=0;strokeColor=#030303;endArrow=classic;endFill=1;" edge="1" parent="1" source="89" target="101"><mxGeometry relative="1" as="geometry"><Array as="points"><mxPoint x="2370" y="580"/><mxPoint x="2370" y="980"/><mxPoint x="2260" y="980"/></Array></mxGeometry></mxCell><mxCell id="89" value="I &amp;lt;- 1, 20, 1" style="strokeWidth=2;html=1;shape=mxgraph.flowchart.terminator;whiteSpace=wrap;" vertex="1" parent="1"><mxGeometry x="2210" y="550" width="100" height="60" as="geometry"/></mxCell><mxCell id="94" value="" style="edgeStyle=orthogonalEdgeStyle;rounded=0;orthogonalLoop=1;jettySize=auto;html=1;strokeColor=#030303;endArrow=classic;endFill=1;" edge="1" parent="1" source="91" target="93"><mxGeometry relative="1" as="geometry"/></mxCell><mxCell id="91" value="diario[I].Nome" style="html=1;strokeWidth=2;shape=manualInput;whiteSpace=wrap;rounded=1;size=26;arcSize=11;" vertex="1" parent="1"><mxGeometry x="2210" y="640" width="100" height="60" as="geometry"/></mxCell><mxCell id="98" value="" style="edgeStyle=orthogonalEdgeStyle;rounded=0;orthogonalLoop=1;jettySize=auto;html=1;strokeColor=#030303;endArrow=classic;endFill=1;" edge="1" parent="1" source="93" target="95"><mxGeometry relative="1" as="geometry"/></mxCell><mxCell id="100" style="edgeStyle=orthogonalEdgeStyle;rounded=0;orthogonalLoop=1;jettySize=auto;html=1;exitX=1;exitY=0.5;exitDx=0;exitDy=0;exitPerimeter=0;entryX=0;entryY=0.5;entryDx=0;entryDy=0;entryPerimeter=0;strokeColor=#030303;endArrow=classic;endFill=1;" edge="1" parent="1" source="93" target="89"><mxGeometry relative="1" as="geometry"><Array as="points"><mxPoint x="2330" y="780"/><mxPoint x="2330" y="960"/><mxPoint x="2100" y="960"/><mxPoint x="2100" y="580"/></Array></mxGeometry></mxCell><mxCell id="93" value="J &amp;lt;- 1, 4, 1" style="strokeWidth=2;html=1;shape=mxgraph.flowchart.terminator;whiteSpace=wrap;" vertex="1" parent="1"><mxGeometry x="2210" y="750" width="100" height="60" as="geometry"/></mxCell><mxCell id="99" style="edgeStyle=orthogonalEdgeStyle;rounded=0;orthogonalLoop=1;jettySize=auto;html=1;exitX=0;exitY=0.75;exitDx=0;exitDy=0;entryX=0;entryY=0.5;entryDx=0;entryDy=0;entryPerimeter=0;strokeColor=#030303;endArrow=classic;endFill=1;" edge="1" parent="1" source="95" target="93"><mxGeometry relative="1" as="geometry"><Array as="points"><mxPoint x="2160" y="895"/><mxPoint x="2160" y="780"/></Array></mxGeometry></mxCell><mxCell id="95" value="diario[I].notas[J]" style="html=1;strokeWidth=2;shape=manualInput;whiteSpace=wrap;rounded=1;size=26;arcSize=11;" vertex="1" parent="1"><mxGeometry x="2210" y="850" width="100" height="60" as="geometry"/></mxCell><mxCell id="101" value="End" style="strokeWidth=2;html=1;shape=mxgraph.flowchart.start_1;whiteSpace=wrap;" vertex="1" parent="1"><mxGeometry x="2220" y="1009" width="80" height="40" as="geometry"/></mxCell></root></mxGraphModel></diagram></mxfile>